<?xml version="1.0" standalone="no"?>
<!DOCTYPE svg PUBLIC "-//W3C//DTD SVG 20010904//EN"
        "http://www.w3.org/TR/2001/REC-SVG-20010904/DTD/svg10.dtd">
<svg version="1.0" xmlns="http://www.w3.org/2000/svg"
     width="256.000000pt" height="256.000000pt" viewBox="0 0 256.000000 256.000000"
     preserveAspectRatio="xMidYMid meet">

    <g transform="translate(0.000000,256.000000) scale(0.100000,-0.100000)"
       fill="#000000" stroke="none">
        <path d="M851 1821 c-44 -15 -80 -35 -88 -48 -14 -20 -13 -21 9 -17 18 3 17 2
-4 -7 -29 -11 -38 -29 -15 -29 8 0 8 -3 2 -8 -6 -4 -12 -24 -14 -45 -2 -35 -1
-38 31 -44 l33 -7 -35 -6 c-33 -5 -35 -7 -38 -47 -3 -41 -2 -43 24 -43 26 0
24 -3 -34 -64 -34 -35 -62 -68 -62 -73 0 -20 58 -99 83 -112 24 -13 27 -20 27
-68 0 -46 4 -57 27 -77 l27 -24 -17 -68 c-31 -119 -30 -132 10 -189 23 -31 36
-61 36 -80 0 -16 5 -33 11 -37 18 -13 95 -9 124 6 15 7 65 18 112 24 47 6 170
23 274 37 104 14 225 27 268 29 79 2 112 16 91 37 -8 8 -2 31 23 86 19 41 34
88 33 106 -1 31 -2 30 -9 -8 -11 -50 -58 -158 -68 -153 -52 26 -62 33 -59 42
2 6 7 22 11 36 6 25 6 25 -6 2 -12 -24 -23 -23 -88 7 -39 18 -39 19 -25 144
l8 68 44 -43 c52 -50 73 -86 73 -125 0 -22 2 -25 10 -13 14 22 12 57 -5 90
-14 27 -14 30 13 49 15 12 32 25 39 30 8 7 16 -4 29 -39 10 -27 20 -48 22 -45
3 2 -3 22 -12 45 -9 22 -16 52 -16 66 0 24 -1 24 -16 9 -12 -11 -20 -13 -27
-6 -15 15 -27 14 -27 -4 0 -21 -107 -20 -135 0 -18 14 -18 20 -7 85 7 39 12
80 11 93 0 21 -1 21 -9 2 -5 -11 -9 -37 -9 -57 -1 -20 -5 -39 -9 -42 -5 -3
-23 9 -40 27 l-32 33 43 61 c42 60 76 83 125 83 12 0 22 3 22 8 0 4 -78 5
-172 2 -95 -2 -149 -6 -121 -8 l53 -3 -20 -39 c-27 -53 -25 -71 9 -104 25 -24
28 -32 20 -53 -7 -20 -6 -28 7 -38 9 -6 27 -36 38 -66 l22 -54 -23 -75 c-14
-41 -28 -78 -32 -83 -4 -4 -54 -12 -112 -17 -57 -6 -147 -15 -199 -20 -52 -5
-96 -8 -97 -6 -2 2 1 15 6 29 7 17 7 47 0 88 -9 59 -9 64 12 79 13 11 19 24
16 36 -4 17 -5 17 -6 -2 -1 -25 -60 -59 -76 -43 -14 14 -25 11 -25 -6 0 -23
-57 -18 -110 9 l-45 23 -1 79 c-1 43 -6 92 -13 107 -6 16 -12 43 -12 60 l-1
32 -7 -30 c-4 -16 -2 -47 3 -67 6 -21 7 -41 3 -44 -13 -13 -87 72 -87 100 0 3
19 25 43 50 42 45 98 76 137 76 12 0 18 5 15 10 -8 13 11 13 36 -1 11 -5 16
-15 13 -21 -4 -7 -3 -8 4 -4 7 4 12 3 12 -1 0 -5 13 -17 30 -26 19 -12 34 -32
42 -59 11 -38 10 -42 -11 -59 -36 -29 -58 -24 -67 14 -5 26 -8 28 -13 13 -4
-10 1 -44 12 -74 17 -51 17 -59 4 -88 -15 -30 -15 -32 8 -42 20 -10 27 -8 38
9 11 15 21 18 40 14 22 -6 26 -4 24 14 -1 12 -8 21 -17 21 -12 0 -16 9 -16 35
1 31 4 36 33 41 31 6 32 7 14 23 -32 27 -34 53 -6 83 40 43 30 63 -18 35 -20
-12 -25 -10 -55 20 l-34 33 158 0 c86 0 155 2 153 5 -3 2 -74 5 -159 6 -113 0
-162 5 -182 15 -34 18 -36 28 -4 20 32 -8 56 2 49 20 -4 11 0 12 18 5 16 -6
23 -15 21 -27 -3 -17 -2 -17 11 -4 19 19 33 115 18 125 -27 16 -8 25 42 20
106 -12 119 -16 113 -31 -4 -10 2 -14 18 -14 19 0 23 4 19 20 -3 13 0 20 8 21
8 1 -2 5 -21 9 -30 6 -25 8 29 9 35 0 61 -2 58 -6 -4 -3 -2 -12 3 -19 6 -6 9
-17 8 -24 -2 -7 3 -15 10 -17 7 -3 10 1 6 10 -3 8 0 18 5 22 6 3 9 11 6 16 -4
5 14 8 42 8 69 -2 194 -16 159 -17 -19 -1 -26 -6 -20 -11 7 -8 78 -15 206 -21
10 -1 17 -7 15 -13 -1 -7 5 -11 13 -9 8 2 20 -5 27 -14 7 -10 13 -13 13 -6 0
6 -9 17 -19 24 -24 17 -15 35 19 39 16 3 26 11 28 24 2 18 2 18 -8 3 -8 -13
-24 -18 -62 -18 -44 0 -49 -2 -38 -15 11 -14 10 -14 -14 -5 -15 5 -44 11 -64
12 -36 1 -36 1 8 7 51 7 74 5 -370 42 -129 11 -266 22 -305 26 -51 4 -83 1
-118 -11 -56 -19 -57 -19 -57 -7 0 5 24 15 54 21 38 8 55 16 59 29 4 18 2 18
-40 4 -24 -8 -47 -13 -50 -10 -3 3 15 11 38 17 38 10 98 55 88 65 -2 1 -37 -9
-78 -24z m35 -128 c-8 -15 -15 -25 -16 -21 0 12 23 58 27 54 3 -2 -2 -17 -11
-33z m137 20 c-7 -2 -21 -2 -30 0 -10 3 -4 5 12 5 17 0 24 -2 18 -5z m110 -10
c-18 -2 -48 -2 -65 0 -18 2 -4 4 32 4 36 0 50 -2 33 -4z m-180 -15 c-2 -5 2
-9 9 -10 7 0 18 -2 23 -2 21 -3 35 -18 35 -37 0 -20 -15 -26 -25 -9 -3 5 -28
12 -55 16 -38 5 -50 11 -50 24 0 9 3 19 6 23 9 9 63 4 57 -5z m-84 -85 c-2
-35 -3 -40 -6 -18 -3 16 -10 33 -16 37 -9 6 -8 8 1 8 7 0 10 5 7 10 -3 6 -1
10 4 10 7 0 10 -20 10 -47z m-46 30 c-7 -2 -19 -2 -25 0 -7 3 -2 5 12 5 14 0
19 -2 13 -5z m603 -250 c-10 -10 -19 5 -10 18 6 11 8 11 12 0 2 -7 1 -15 -2
-18z m-414 -365 c2 -50 -66 -238 -86 -238 -7 0 -23 5 -37 12 l-25 12 25 60
c16 40 25 82 25 121 1 60 1 60 41 80 47 23 54 17 57 -47z m-117 -60 c7 -37 7
-38 -25 -38 -27 0 -31 3 -25 18 4 9 12 30 17 45 13 34 24 25 33 -25z m790 -61
c11 -9 14 -16 7 -21 -15 -9 -42 4 -42 20 0 18 11 18 35 1z"/>
        <path d="M1238 1823 c7 -3 16 -2 19 1 4 3 -2 6 -13 5 -11 0 -14 -3 -6 -6z"/>
        <path d="M1428 1803 c7 -3 16 -2 19 1 4 3 -2 6 -13 5 -11 0 -14 -3 -6 -6z"/>
        <path d="M1628 1733 c7 -3 16 -2 19 1 4 3 -2 6 -13 5 -11 0 -14 -3 -6 -6z"/>
        <path d="M1760 1730 c0 -5 5 -10 11 -10 5 0 7 5 4 10 -3 6 -8 10 -11 10 -2 0
-4 -4 -4 -10z"/>
        <path d="M1398 1655 c5 -30 18 -33 25 -6 5 22 0 31 -18 31 -8 0 -10 -10 -7
-25z"/>
        <path d="M1045 1630 c3 -4 53 -8 112 -9 59 -1 105 0 103 2 -9 8 -220 15 -215
7z"/>
        <path d="M1661 1616 c-1 -16 -7 -18 -48 -13 -76 10 -329 20 -322 14 3 -4 61
-9 130 -13 68 -3 133 -8 144 -9 11 -2 37 -4 59 -4 l38 -1 -4 -40 c-4 -42 7
-54 40 -44 13 4 14 3 4 -4 -11 -7 -10 -10 3 -16 9 -3 25 -6 34 -6 10 0 23 -10
29 -22 l11 -23 0 22 c1 12 7 24 14 26 8 4 7 6 -3 6 -12 1 -15 10 -12 40 4 37
2 39 -32 51 -20 6 -44 9 -55 5 -16 -5 -20 0 -24 22 -2 15 -5 20 -6 9z m95
-123 c-11 -11 -19 6 -11 24 8 17 8 17 12 0 3 -10 2 -21 -1 -24z"/>
        <path d="M1836 1544 c-20 -22 -22 -30 -13 -45 9 -14 7 -22 -6 -37 -18 -20 -23
-52 -7 -52 5 0 7 6 5 13 -3 6 -1 18 4 26 7 10 13 11 32 1 23 -10 23 -10 5 4
-11 9 -17 18 -14 22 8 7 91 -17 101 -31 5 -6 7 -4 4 5 -2 8 -13 16 -25 18 -25
4 -29 20 -7 28 26 10 -17 74 -50 74 -2 0 -15 -12 -29 -26z"/>
        <path d="M1778 1413 c-7 -26 -40 -43 -46 -25 -2 7 -8 12 -14 12 -6 0 -7 -7 -3
-17 4 -10 10 -45 14 -78 6 -58 7 -60 35 -60 37 -1 44 -20 47 -131 2 -79 19
-144 37 -144 14 0 36 19 38 33 1 8 4 30 8 48 l5 34 -11 -32 c-7 -22 -17 -33
-29 -33 -22 0 -24 17 -8 57 16 38 19 104 7 126 -12 24 6 47 38 47 20 0 24 -5
25 -32 1 -28 2 -29 6 -8 2 14 11 30 19 37 12 9 13 19 6 47 -9 30 -8 38 6 46
16 9 16 9 0 10 -11 0 -19 13 -24 43 -4 23 -9 35 -11 26 -2 -9 3 -47 11 -85 7
-38 13 -70 11 -72 -1 -1 -27 0 -58 4 l-55 7 15 36 c20 45 26 122 9 100 -15
-19 -64 -13 -68 9 -3 13 -5 12 -10 -5z m70 -50 c5 -31 -25 -83 -47 -83 -13 0
-22 10 -26 30 -7 33 -1 50 21 50 8 0 14 7 14 16 0 24 34 12 38 -13z"/>
        <path d="M1801 1334 c0 -11 3 -14 6 -6 3 7 2 16 -1 19 -3 4 -6 -2 -5 -13z"/>
        <path d="M1195 1397 c12 -7 20 -18 19 -24 -1 -7 -2 -20 -3 -29 -1 -10 -7 -14
-16 -10 -10 3 -15 -1 -15 -12 0 -15 -2 -15 -10 -2 -8 13 -10 12 -10 -2 0 -24
12 -22 44 7 31 28 34 60 7 75 -27 14 -40 12 -16 -3z"/>
        <path d="M1160 1376 c0 -8 4 -17 9 -20 5 -4 7 3 4 14 -6 23 -13 26 -13 6z"/>
        <path d="M1650 1345 c-14 -8 -20 -14 -14 -15 5 0 19 7 30 15 24 18 16 19 -16
0z"/>
        <path d="M1588 1313 c12 -2 30 -2 40 0 9 3 -1 5 -23 4 -22 0 -30 -2 -17 -4z"/>
        <path d="M809 1271 c13 -12 28 -21 35 -21 12 0 -5 14 -39 31 -16 8 -15 6 4
-10z"/>
        <path d="M790 1256 c0 -2 8 -10 18 -17 15 -13 16 -12 3 4 -13 16 -21 21 -21
13z"/>
        <path d="M1065 1240 c-13 -6 -15 -9 -5 -9 8 0 22 4 30 9 18 12 2 12 -25 0z"/>
        <path d="M1915 1129 c-9 -17 -15 -33 -13 -35 3 -2 12 12 21 31 21 43 13 47 -8
4z"/>
        <path d="M1710 1040 c0 -14 15 -19 29 -11 9 6 7 10 -8 14 -12 3 -21 1 -21 -3z"/>
    </g>
</svg>
